# xmcd CD database file
#
# Track frame offsets:
#	150
#	16163
#	36636
#	55198
#	68806
#	84810
#	109367
#	124976
#	141933
#	156949
#
# Disc length: 2337 seconds
#
# Revision: 0
# Processed by: cddbd v1.4PL0 Copyright (c) Steve Scherf et al.
# Submitted via: CDex 1.51
#
DISCID=89091f0a
DTITLE=Ireneusz Dudek - Nowa p³yta
DYEAR=1989
DGENRE=Blues
TTITLE0=Marsz aktywistów
TTITLE1=l Om kwadratowych
TTITLE2=Tak latwo
TTITLE3=Paragraf 22
TTITLE4=Byle co byle jak
TTITLE5=A jezeli moj dobry boze
TTITLE6=Kameralny blues
TTITLE7=Na prawo marsz na lewo zwrot
TTITLE8=Wake-Up This Morning
TTITLE9=wiem w co gram
EXTD=YEAR: 1989
EXTT0=
EXTT1=
EXTT2=
EXTT3=
EXTT4=
EXTT5=
EXTT6=
EXTT7=
EXTT8=
EXTT9=
PLAYORDER=
